# xmcd
#
# Track frame offsets: 
#        150
#        12352
#        27032
#        40017
#        53795
#        63495
#        77035
#        90827
#        101422
#        115650
#        129992
#        143940
#        154767
#        165142
#        176442
#        187852
#
# Disc length: 2687 seconds
#
# Revision: 3
# Processed by: cddbd v1.5.2PL0 Copyright (c) Steve Scherf et al.
# Submitted via: ExactAudioCopy v0.99pb5
#
DISCID=b10a7d10,c80a7d10
DTITLE=Willie Nelson - CD Diamond Series - 16 Top Tracks
DYEAR=1988
DGENRE=Country
TTITLE0=Born to lose
TTITLE1=What now my love
TTITLE2=Teach me to forget
TTITLE3=Have I told you lately that I love you?
TTITLE4=San Antonio rose
TTITLE5=I love you because
TTITLE6=Don't you ever get tired (of hurting me)
TTITLE7=Heartaches by the number
TTITLE8=My own peculiar way
TTITLE9=I walk alone
TTITLE10=It will come to pass
TTITLE11=Suffer in silence
TTITLE12=To make a long story short (she's gone)
TTITLE13=The party's over
TTITLE14=Crazy arms
TTITLE15=Both sides now
EXTD=
EXTT0=
EXTT1=
EXTT2=
EXTT3=
EXTT4=
EXTT5=
EXTT6=
EXTT7=
EXTT8=
EXTT9=
EXTT10=
EXTT11=
EXTT12=
EXTT13=
EXTT14=
EXTT15=
PLAYORDER=
